<svg xmlns="http://www.w3.org/2000/svg" viewBox="0 0 219.70175 77.71827">
  <defs>
    <style>
      .cls-1 {
        fill: #fff;
      }

      .cls-2 {
        fill: #ea4756;
      }
    </style>
  </defs>
  <title>Asset 1</title>
  <g id="Layer_2" data-name="Layer 2">
    <g id="Layer_1-2" data-name="Layer 1">
      <g>
        <path class="cls-1" d="M129.03232,0h5.86283V32.07043h-5.8055V30.24792a23.16826,23.16826,0,0,1-3.99551,2.1097,9.471,9.471,0,0,1-10.33594-3.77244,12.03374,12.03374,0,0,1,.28949-14.0829c3.04963-3.87059,9.64946-5.36332,13.98463-1.01107Zm.02841,21.84862a5.164,5.164,0,1,0-10.31006-.12636,5.1634,5.1634,0,1,0,10.31006.12636Z"/>
        <path class="cls-1" d="M161.61946,32.07584H155.7953V30.2842a22.52884,22.52884,0,0,1-4.02086,2.07917c-5.39684,1.54793-10.84919-2.0398-12.2147-7.88062-1.26248-5.40017,1.402-11.14477,6.15079-12.928,3.48173-1.30745,6.8223-1.11045,9.675,1.63777a1.774,1.774,0,0,0,.38334.18852V11.47976h5.85055ZM145.46527,21.79111a5.11954,5.11954,0,0,0,5.11462,5.445,5.21249,5.21249,0,0,0,5.20192-5.39838,5.25438,5.25438,0,0,0-5.21346-5.51362A5.17073,5.17073,0,0,0,145.46527,21.79111Z"/>
        <path class="cls-1" d="M87.93957,11.39908c2.21962,0,4.25128-.03275,6.27949.03585.299.01011.69513.44594.8543.77709,1.48434,3.08814,2.92614,6.19671,4.38187,9.29861.17931.38208.368.75974.62181,1.2825.23764-.426.418-.71973.57057-1.02728,1.55861-3.14177,3.13773-6.27384,4.64918-9.4382a1.41178,1.41178,0,0,1,1.54275-.95025c1.78131.06508,3.56664.02035,5.5363.02035-1.353,2.65833-2.60389,5.13415-3.87086,7.60167Q102.79914,30.11189,97.10036,41.2279a1.27181,1.27181,0,0,1-1.35263.83416c-1.79391-.04849-3.59-.01627-5.55969-.01627.816-1.63949,1.56038-3.16389,2.33029-4.6753,1.248-2.44987,2.49309-4.9016,3.78319-7.32931a1.79851,1.79851,0,0,0,.00708-1.8643c-2.68269-5.29772-5.32264-10.61707-7.97468-15.9303C88.22859,12.03556,88.13446,11.81894,87.93957,11.39908Z"/>
        <path class="cls-1" d="M166.42084,42.04551c1.05708-2.09124,2.01791-4.00211,2.98789-5.90834,1.08379-2.12989,2.213-4.23809,3.23106-6.39876a1.99593,1.99593,0,0,0-.11952-1.5074c-2.543-5.18771-5.13276-10.35254-7.708-15.52447-.1898-.38115-.36182-.77114-.61273-1.30822,2.15547,0,4.17912-.03878,6.19834.03848.3335.01276.77814.47091.95034.82943,1.6716,3.48,3.296,6.9827,5.00562,10.63206,1.6804-3.40385,3.35275-6.65178,4.88267-9.96549a2.18762,2.18762,0,0,1,2.4965-1.56787c1.5381.143,3.09971.03317,4.786.03317-.13077.34733-.19814.5969-.3133.822q-7.45624,14.575-14.94485,29.1333a1.46829,1.46829,0,0,1-1.05752.66133C170.36909,42.08208,168.531,42.04551,166.42084,42.04551Z"/>
        <path class="cls-1" d="M21.32335,23.286H6.11394a4.62165,4.62165,0,0,0,3.42695,4.2705c2.5802.76528,4.61506-.16983,6.15463-2.452L20.01,27.65664c-1.45947,3.95373-7.3859,6.05593-12.53257,4.49673-5.519-1.672-8.52768-7.25971-7.14195-13.26411a10.55857,10.55857,0,0,1,12.28474-7.973C18.24393,11.9,21.97507,17.15393,21.32335,23.286Zm-6.45873-4.19057a4.05126,4.05126,0,0,0-4.15072-3.46039,4.16394,4.16394,0,0,0-4.31133,3.46039h8.46205Z"/>
        <path class="cls-1" d="M53.14313,23.28406a4.63316,4.63316,0,0,0,3.37505,4.28479c2.59706.71059,4.60791-.19064,6.17409-2.45321l4.29345,2.53621c-1.41,3.66113-6.64891,6.00524-12.00966,4.63181-5.60781-1.43673-8.85458-6.71922-7.81544-12.62409a10.53277,10.53277,0,0,1,11.99675-8.81412c5.7209.65015,9.47871,5.63781,9.23231,12.43861H53.14313Zm8.62355-4.228a3.85718,3.85718,0,0,0-3.88822-3.42013,4.08844,4.08844,0,0,0-4.44332,3.42013Z"/>
        <path class="cls-1" d="M95.88636,67.29123h-4.0169v9.95563H86.78031V53.39005H91.819v9.416h4.04313V53.39449h5.129V77.19188h-5.1048Z"/>
        <path class="cls-1" d="M125.3017,65.27665c0-2.23652-.01694-4.4732.00426-6.70952a4.97416,4.97416,0,0,1,4.22279-5.29257,11.95592,11.95592,0,0,1,7.16928.384,4.69855,4.69855,0,0,1,3.27889,4.662c.02166,4.47292.05227,8.94672-.01182,13.41884-.052,3.628-1.81848,5.515-5.47759,5.77821a21.228,21.228,0,0,1-5.21534-.21452,4.48209,4.48209,0,0,1-3.91017-4.6008c-.10192-2.4713-.02229-4.95008-.02229-7.42559Zm9.44151.03981c0-1.99642.01-3.99291-.00332-5.98924-.00971-1.4575-.63681-2.17726-1.90792-2.24273a2.03047,2.03047,0,0,0-2.38087,2.08763q-.08823,6.1076-.00189,12.2172c.01963,1.45628.89437,2.14,2.34692,2.09307,1.31861-.04262,1.93164-.70992,1.94316-2.17669C134.755,69.3094,134.7432,67.31288,134.74321,65.31646Z"/>
        <path class="cls-1" d="M109.2992,77.25169V53.13023c3.33432.20875,6.65476.17636,9.889.68842,3.07491.48683,4.23538,2.2973,4.23552,5.42479q.00029,6.05475-.00111,12.10951c-.00434,3.53282-1.4652,5.23195-4.92224,5.73089a11.43111,11.43111,0,0,1-1.54625.16036C114.44048,77.26075,111.92668,77.25169,109.2992,77.25169Zm5.1726-3.95629c2.98759.42486,3.80371-.25675,3.8045-3.1203q.00136-4.9652-.00082-9.93039c-.00339-2.64166-1.24558-3.55718-3.80368-2.81946Z"/>
        <path class="cls-1" d="M150.49551,77.21515c-.73457-2.79526-1.47937-5.62949-2.22417-8.46371l-.23839-.0382c-.79037,2.83015-1.58074,5.6603-2.38141,8.52731h-5.54777c.81505-2.1215,1.60406-4.1872,2.40234-6.24933.6611-1.70781,1.3721-3.3978,1.97458-5.12581a2.46312,2.46312,0,0,0-.0186-1.56139c-1.245-3.27374-2.55507-6.5227-3.84216-9.78045-.1428-.36151-.27132-.72867-.432-1.16219h5.45849c.77555,2.74978,1.55546,5.515,2.42868,8.611.80189-2.62318,1.58977-4.914,2.1806-7.25449a1.57445,1.57445,0,0,1,1.96-1.42054c1.257.1009,2.52842.023,3.95623.023-.8326,2.1796-1.60846,4.21506-2.38772,6.24921-.61256,1.599-1.26917,3.18278-1.81938,4.80281a2.54906,2.54906,0,0,0,.00269,1.56271c1.338,3.74143,2.73434,7.462,4.14646,11.28Z"/>
        <path class="cls-1" d="M69.16882,61.73771H64.41413c0-.90347.02808-1.738-.00664-2.56992A1.773,1.773,0,0,0,62.56767,57.25c-1.0438-.02073-1.70622.57955-1.837,1.788a22.66844,22.66844,0,0,0-.05961,2.3915q-.00825,4.615-.00113,9.23008c.00023.35916-.00494.72022.02808,1.07709.092.994.54922,1.65732,1.6331,1.7029a1.58662,1.58662,0,0,0,1.83583-1.4787c.14629-1.13773.17369-2.29076.2571-3.499h4.74952c0,1.58326.115,3.13989-.0279,4.67249a4.47925,4.47925,0,0,1-3.47366,4.10982,11.49034,11.49034,0,0,1-6.49151.01213,4.81522,4.81522,0,0,1-3.67681-4.97267q-.01282-6.71275-.0016-13.42557c.00221-3.10977,1.388-4.939,4.41356-5.67291a10.78294,10.78294,0,0,1,5.90874.211A4.51791,4.51791,0,0,1,69.149,57.63144C69.25491,58.97633,69.16882,60.33633,69.16882,61.73771Z"/>
        <path class="cls-1" d="M23.24056,11.39759c2.10474,0,4.01711-.03826,5.92512.036a1.43311,1.43311,0,0,1,.95528.77443c1.44141,3.1498,2.82818,6.3246,4.23144,9.49187.13738.31008.27836.61857.52012,1.1552,1.18758-2.64155,2.26736-5.05854,3.3608-7.46933.59111-1.30327.88277-3.09127,1.90016-3.75428,1.02006-.66476,2.7746-.20652,4.20739-.23209.63226-.01129,1.2649-.0019,2.07938-.0019-.87043,1.871-1.67536,3.62432-2.49955,5.36851-2.26235,4.78768-4.54883,9.56407-6.78342,14.36464a1.69624,1.69624,0,0,1-1.60673,1.04153c-1.97318.27071-2.88772-.50755-3.68779-2.31819-2.62113-5.9319-5.47794-11.75966-8.24295-17.628C23.501,12.01625,23.41484,11.80061,23.24056,11.39759Z"/>
        <path class="cls-1" d="M76.24894,68.60521v8.60491H71.16757V53.50285c3.29479,0,6.56841-.17782,9.81249.05542,2.66763.19179,4.043,2.05541,4.04426,4.73153q.00122,2.51873,0,5.03745c-.00177,3.29858-1.853,5.19761-5.16568,5.27375C78.70637,68.62748,77.553,68.60521,76.24894,68.60521Zm.07264-4.14266c4.1427.33222,3.9975-.51179,3.90612-3.42244-.0025-.07967-.00295-.15958.00006-.2392.12523-3.30345-.17822-3.50152-3.62527-3.38976a1.18176,1.18176,0,0,0-.28091.10407Z"/>
        <path class="cls-2" d="M219.70172,20.6668a7.603,7.603,0,0,1-7.6511,7.68634,7.67717,7.67717,0,1,1-.01472-15.35423A7.59984,7.59984,0,0,1,219.70172,20.6668Z"/>
        <path class="cls-1" d="M78.429,32.07517H72.56167v-20.598h5.792v2.44193c3.01025-2.75612,4.7151-3.35713,7.593-2.67424V17.001a29.28667,29.28667,0,0,0-3.50838-.27621,3.69674,3.69674,0,0,0-3.58361,2.99982,12.99566,12.99566,0,0,0-.40741,3.1921C78.39508,25.94687,78.429,28.97852,78.429,32.07517Z"/>
        <path class="cls-1" d="M163.20473,50.06167l-1.48208.95943L160.16873,49.065l-1.61016,1.92319-1.48162-.99052,1.49529-1.94684-2.48312-.82894.5626-1.59152,2.59042.73734V43.79485h1.83412v2.45892l2.62264-.68906.56685,1.60409-2.53336.78265Z"/>
        <path class="cls-1" d="M107.30253,64.16542h-4.40789V59.32079h4.40789Z"/>
        <path class="cls-1" d="M102.90056,72.2773h4.40951v4.93214h-4.40951Z"/>
      </g>
    </g>
  </g>
</svg>
