<svg xmlns="http://www.w3.org/2000/svg" viewBox="0 0 634 634">
  <title>logo</title>
  <g id="Layer_2" data-name="Layer 2">
    <g id="circle">
      <g>
        <path d="M317,624.5A307.51,307.51,0,0,1,99.56,99.56,307.51,307.51,0,0,1,534.44,534.44,305.53,305.53,0,0,1,317,624.5Z" fill="#29a29e"/>
        <path d="M317,19A298.08,298.08,0,0,1,433,591.59,298.08,298.08,0,0,1,201,42.41,296.2,296.2,0,0,1,317,19m0-19C141.93,0,0,141.93,0,317S141.93,634,317,634,634,492.07,634,317,492.07,0,317,0Z" fill="#263441"/>
      </g>
      <path d="M317.5,34a282.57,282.57,0,0,1,110,542.8A282.57,282.57,0,0,1,207.54,56.2,280.74,280.74,0,0,1,317.5,34m0-1C160.93,33,34,159.93,34,316.5S160.93,600,317.5,600,601,473.07,601,316.5,474.07,33,317.5,33Z" fill="#fff"/>
      <rect x="103" y="220" width="429" height="194" rx="12" ry="12" fill="#263441"/>
      <g>
        <path d="M275,153.61a7.17,7.17,0,0,1-5.42,2.62,23.55,23.55,0,0,1-3.9-.48,24,24,0,0,0-4.12-.48q-9.11,0-24.28,4.07-18,5-24.27,5.74l-4.56,45q-.44,4.78-.43,8.13,0,5.27,3.25,5.27a9.07,9.07,0,0,0,2-.24q20.82-5.73,30.13-5.72,13.44,0,9.11-.48a9.08,9.08,0,0,1,6.93,4.77l.65,6a2.24,2.24,0,0,1-2.16,1.67,23,23,0,0,0-4,.47,21,21,0,0,1-3.8.48q-18.65,0-42.05,7.87-1.51,7.88-1.52,35.05,0,22.41,1.52,25a24,24,0,0,0,2.06,2.86,4.16,4.16,0,0,1,1.19,2.38q0,1.67-2.38,3.7c-1.59,1.35-2.82,2-3.69,2q-.21,0-6.5-3.81-4.55-13.11-4.55-34.57,0-16.94,2.49-50.19t2.49-50.2q0-3.57-3-4.05-4.77-.94-5.64-1.67c-2.16-1.58-3.25-3-3.25-4.29a7.55,7.55,0,0,1,2-4.77c.58-.32,2.39-.55,5.42-.71q3.69-.24,5-1.91a16.08,16.08,0,0,0,.43-3.58c0-2.38,1.44-4.53,4.34-6.44a11.79,11.79,0,0,1,5.85-2.14c1.44,0,2.24,1,2.38,3.1v5a3.9,3.9,0,0,0,1.52,2.38q10.18-2.39,20.59-4.77a103.2,103.2,0,0,1,20.81-2.62Q267.84,144.07,275,153.61Z" fill="#fe638d"/>
        <path d="M344.27,258q0,20.5-8.24,35.77-9.75,18.35-27.1,18.35-17.55,0-26.22-15-7.15-12.39-7.16-32.9a101.75,101.75,0,0,1,8.24-39.82q10.41-24.07,26.44-24.08,4.13,0,11.71,5.24Q344.26,220.85,344.27,258Zm-10.41-.24a94.72,94.72,0,0,0-3.68-27.42q-5.43-16.92-16.69-16.93-13,0-20.38,18.84a85.65,85.65,0,0,0-5.64,31.23q0,15,3.91,25.28,5.63,14.07,17.55,14.07,13,0,19.73-16.22Q333.87,274,333.86,257.8Z" fill="#fe638d"/>
        <path d="M433.7,258q0,20.5-8.24,35.77-9.75,18.35-27.09,18.35-17.56,0-26.23-15Q365,284.75,365,264.24a101.74,101.74,0,0,1,8.23-39.82q10.41-24.07,26.45-24.08,4.11,0,11.7,5.24Q433.69,220.85,433.7,258Zm-10.41-.24a94.38,94.38,0,0,0-3.68-27.42q-5.42-16.92-16.69-16.93-13,0-20.38,18.84a85.65,85.65,0,0,0-5.63,31.23q0,15,3.9,25.28,5.64,14.07,17.56,14.07,13,0,19.72-16.22Q423.3,274,423.29,257.8Z" fill="#fe638d"/>
      </g>
      <g>
        <path d="M225.71,386.74l-5.7,6.5q9.94.87,17.77,2.33t14.47,3.26a115,115,0,0,1,11.67,3.73q17.65,7.15,17.65,19.95,0,7.8-7.37,15.28A71,71,0,0,1,255,451.12a128.33,128.33,0,0,1-24.25,9.15,88.64,88.64,0,0,1-22.62,3.31q-17,0-26.48-6.12t-9.5-16.75q0-7.36,5.81-17.34t18-24.82q-9.17-.42-13-2.65a6.9,6.9,0,0,1-3.8-6.23,4.84,4.84,0,0,1,1.45-3.79,9,9,0,0,1,3.91-1.9q2.46-.6,9.45-1.47T212,380.35q12.18-14.52,21.84-21.84a40.39,40.39,0,0,1,20.73-8.4,16.57,16.57,0,0,1,2-.11c.71,0,1.06.18,1.06.54s-.84,1.59-2.51,3.47-4.4,4.88-8.16,9l-13.35,14.63a281.07,281.07,0,0,0,34.36-6.23q13.35-3.53,20.16-8.4t6.82-10.84q0-7.26-7.26-10.51t-22.24-3.25A127.66,127.66,0,0,0,246.44,340q-10.68,1.64-19.33,3.69a160.3,160.3,0,0,0-15.42,4.39q-6.76,2.33-6.76,3.41c0,.22.22.43.67.65q5.47,1.95,5.47,3.25,0,1.74-16.76,6.67T171.75,367q-4.14,0-4.14-4,0-4.77,9-17.18T193,330a102.09,102.09,0,0,1,12-3.79q9.39-2.6,20.61-5t22.85-4A150.94,150.94,0,0,1,269,315.54q21.12,0,31.73,7.31t10.61,18.37a24.8,24.8,0,0,1-4.86,14.42q-4.86,6.93-15.14,13.11t-26.75,10.84A242.77,242.77,0,0,1,225.71,386.74Zm-11.84,14q-5.82,6.72-10.34,11.87a65.92,65.92,0,0,0-6.48,8.34,12.3,12.3,0,0,0-2,6.45q0,5.21,5.53,9.27t15.92,4.06a70.86,70.86,0,0,0,20.5-3.3,62.7,62.7,0,0,0,18.32-8.62q7.44-5.31,7.43-10.73,0-4.65-5.47-7.69T240.68,405Q229.51,402.67,213.87,400.72Z" fill="#ff638d"/>
        <path d="M311,406.47q17-15,33-22.22t24.7-7.26a6.25,6.25,0,0,1,4.35,1.89,14.69,14.69,0,0,1,3.19,4.39,10,10,0,0,1,1.17,3.69,3.09,3.09,0,0,1-1.56,2.87,30.93,30.93,0,0,1-5.48,2.22l2,4.45c.82,1.8,1.45,3.27,1.9,4.38a8.2,8.2,0,0,1,.67,3q0,2.6-5.42,9.69T361.91,424a14.78,14.78,0,0,0-2.18,8.24q0,8,7.59,8,7.83,0,24.47-14.2v6.61q-28.26,30.46-40.44,30.46c-2.91,0-5-.92-6.2-2.77s-1.85-4.57-1.85-8.18q0-8.56,6.37-24.82-16.32,17.56-24.24,25t-13.08,7.43c-1.64,0-3.68-1.37-6.14-4.12A39.42,39.42,0,0,1,299.67,445a33.76,33.76,0,0,1-2.85-13.6,30.65,30.65,0,0,1,1-8.51,20.47,20.47,0,0,1,3.91-7A99.31,99.31,0,0,1,311,406.47Zm53.52-11.93q-29.05,12.9-41.39,21.9T310.79,435a11.67,11.67,0,0,0,1.23,5.69,3.73,3.73,0,0,0,3.35,2.22,12.34,12.34,0,0,0,4.36-1.52,87.21,87.21,0,0,0,21.45-17.5Q350.9,413.08,364.53,394.54Z" fill="#ff638d"/>
        <path d="M396.76,434.21v-7a105.82,105.82,0,0,0,9.16-11.82,12.43,12.43,0,0,1-5.19-2.92,7.39,7.39,0,0,1-1.62-5.21q0-3.9,3.35-9.86a57,57,0,0,1,8.27-11.16q4.92-5.2,8.94-6.72a6.94,6.94,0,0,1,3-.76c1.49,0,2.24.69,2.24,2.06s-1.16,3.72-3.46,7.48q23-3.47,29-3.47a8.44,8.44,0,0,1,3.24.43c1.27.66,2.31,2.17,3.13,4.56a21.81,21.81,0,0,1,1.23,7.15,8.28,8.28,0,0,1-2.06,4.93,101.41,101.41,0,0,1-7.1,7.75A64.54,64.54,0,0,0,439,423.05q-4,7.26-4,10.94,0,5.1,6.48,5.1,6.82,0,23.69-13.44v7.26q-9.27,9.43-15.31,14.85a81.37,81.37,0,0,1-11.17,8.61q-5.15,3.19-9.16,3.2a9.43,9.43,0,0,1-7.82-4.17q-3.14-4.17-3.13-12.09A28.38,28.38,0,0,1,421,432.69a73.53,73.53,0,0,1,7.2-12.95,161.43,161.43,0,0,1,10.67-13.92c-2.08.43-4.43.88-7,1.35s-5.37,1-8.27,1.46-5.14.91-6.71,1.2A78.63,78.63,0,0,1,396.76,434.21Z" fill="#ff638d"/>
      </g>
    </g>
  </g>
</svg>
