<svg xmlns="http://www.w3.org/2000/svg" viewBox="0 0 504.78407 126.98942">
  <title>Asset 1</title>
  <g id="Layer_2" data-name="Layer 2">
    <g id="Layer_1-2" data-name="Layer 1">
      <g>
        <path d="M381.95348,58.67716H396.9027q5.12781,13.153,10.27362,26.35871c2.95276,7.599,5.76791,15.25443,8.88406,22.78552a94.95672,94.95672,0,0,0,4.84851,8.98787l1.562-.1183c.59641-1.88321,1.69211-3.76166,1.71018-5.65041q.21734-22.72876-.0001-45.45982c-.024-2.17611-1.259-4.3389-2.20166-7.3696,9.66816.375,19.35.58509,29.00116,1.244a14.90691,14.90691,0,0,1,6.81821,2.82106c6.586,4.46069,6.88342,13.25707.79624,18.34749-1.01258.84677-2.13584,1.56119-3.60843,2.62647,1.37915.68024,2.4783,1.22917,3.58316,1.7663,11.27121,5.47941,13.18591,18.63771,4.031,27.29138-4.8193,4.5555-10.81469,5.86556-17.04776,5.9559-13.81668.20027-27.63821.06239-40.54107.06239-.248-2.98084.02667-5.86316-.808-8.37715-1.55716-4.68981-3.75915-9.1655-5.69281-13.7303-4.64935-.10557-9.29837-.22785-13.94815-.30966-2.311-.04066-4.62329-.00707-7.24216-.00707-1.92,5.57657-3.971,10.84977-5.46908,16.27563-.48816,1.76793.466,3.93411.7966,6.16112-3.19779,0-6.82736.137-10.442-.03673a12.41036,12.41036,0,0,1-9.83657-5.0857c-5.21287-6.91325-10.59809-13.69676-15.92981-20.52a10.51359,10.51359,0,0,0-2.91645-2.66837c.54642,9.33481-2.35791,18.80218,2.14328,28.01843h-16.0693c.54223-4.25527,1.48745-8.56266,1.56622-12.88584q.32767-17.98406-.00308-35.97735c-.05661-3.35339-1.0741-6.69056-1.69385-10.28458h16.22855c-4.55066,8.04724-1.66877,16.76276-1.669,25.63743,1.27115-1.60089,2.57034-3.18045,3.80807-4.80679,3.42862-4.505,6.87507-8.99754,10.22565-13.56022,1.58969-2.16473,3.27887-4.43753.24866-7.4126h16.309c-7.047,8.69714-13.69217,16.89839-20.645,25.47936,6.62256,8.25258,13.22189,16.47622,20.25079,25.23513.85987-1.7462,1.50467-2.83459,1.95237-3.99876,4.89727-12.73387,9.861-25.4439,14.55624-38.25222C381.66924,64.66293,381.5493,61.71848,381.95348,58.67716Zm54.5625,52.4165c3.86383.13418,7.65362.67387,11.34933.2953a10.34556,10.34556,0,0,0,9.34378-8.9408,11.1054,11.1054,0,0,0-5.91443-12.07426c-4.76294-2.55077-9.71637-2.449-14.77868-1.23448Zm.07531-28.69953c6.201.2044,11.69315-.06272,14.74439-5.82782,1.713-3.23664.98611-6.5732-1.51221-9.19153-3.85016-4.03514-8.49917-3.40345-13.23218-2.15815Zm-40.52374,6.02626c-2.61252-7.1075-5.08987-13.84733-7.56723-20.58716l-.91229.08228c-2.498,6.72678-4.996,13.45355-7.61459,20.50488Z"/>
        <path d="M115.47631,118.34407c4.54849-4.05437,4.029-8.45587,4.03015-12.74237.00331-12.47777.10424-24.957-.073-37.43224-.04281-3.01306-1.01235-6.01294-1.62772-9.41713a23.78828,23.78828,0,0,1,2.88072-.20292c9.63048.21043,19.38878-.442,28.86065.90667,15.37692,2.18953,23.81173,12.99794,23.807,28.42432-.00469,15.25725-9.577,26.95752-24.34369,29.6801a37.80343,37.80343,0,0,1-6.43065.74863C134.0052,118.39384,125.42929,118.34407,115.47631,118.34407Zm16.068-7.86466c11.04932,3.393,22.32-1.67482,26.55205-8.29253,5.38176-8.41564,4.59866-23.42777-1.75484-30.49223-5.5691-6.19229-17.26062-8.43932-24.79721-4.684Z"/>
        <path d="M218.51819,58.55115c4.8483,0,9.45543-.20814,14.02141.13349,1.28221.09594,2.75458,1.58964,3.61181,2.81232,7.932,11.313,15.7468,22.708,23.59964,34.07648,1.02866,1.48914,2.07987,2.9627,3.68253,5.243a36.7983,36.7983,0,0,0,.49564-3.83142c.02981-8.49459-.03348-16.98976.03646-25.48388.03708-4.50073.22071-8.984-4.14721-12.77841H275.1967c-4.92209,3.89691-4.2991,8.79262-4.3027,13.52964q-.01644,21.73644-.01538,43.4729c-.00211,1.60039-.15622,3.20059-.26084,5.20219-6.921-1.81955-11.44143-5.96335-15.13458-11.24236Q243.888,93.11065,232.28345,76.54275c-.73824-1.05348-1.53293-2.06739-2.88306-3.88105-.17961,2.06776-.3733,3.28013-.37634,4.493-.02493,9.99371.02859,19.9878-.03629,29.98115-.0253,3.89589.09455,7.67114,4.30375,10.87831H218.19512c4.28317-4.01373,3.89444-9.015,3.87352-13.96666-.04574-10.82639-.013-21.65312-.01442-32.4797C222.05327,64.3545,222.02408,64.24829,218.51819,58.55115Z"/>
        <path d="M0,1.533C4.31382-.47494,500.50673-.45561,504.01729,1.2705c-.03824.16187-.06613.32714-.11774.48463-.04843.14786-.09912.39525-.18783.414a12.017,12.017,0,0,1-2.41895.42031Q251.5506,2.57069,1.80841,2.48891C1.41247,2.48877,1.01667,2.08535,0,1.533Z"/>
        <path d="M504.03716,51.97945C500.57469,53.60184,4.73464,53.73477.57564,52.11569a3.274,3.274,0,0,1,.07765-.45c.049-.15734.10941-.41928.2036-.43773a15.46529,15.46529,0,0,1,2.90557-.47736q249.45885.00854,498.9177.07155a1.53107,1.53107,0,0,1,.925.31095A2.45784,2.45784,0,0,1,504.03716,51.97945Z"/>
        <path d="M504.78407,125.5055c-1.0928.80681-1.56561,1.46181-2.03854,1.46191q-250.40007.05382-500.80012-.02339c-.49937-.00015-.99853-.6398-1.41083-.92139a6.14017,6.14017,0,0,1,.17528-.765c.05637-.13665.14353-.33509.2534-.36287a8.115,8.115,0,0,1,1.92217-.39466q249.90277.005,499.80554.06757C503.10582,124.56782,503.52065,124.92524,504.78407,125.5055Z"/>
        <path d="M34.965,58.71753H48.89709C54.371,74.48006,59.851,90.25986,65.71674,107.15079,69.46223,96.87608,72.82435,87.7002,76.148,78.5104c1.18675-3.28136,2.3079-6.58725,3.40873-9.89865,1.0879-3.27256,1.33917-6.502-1.238-9.80038H91.542c-7.60762,20.77917-15.11979,41.29762-22.677,61.939-8.10677-2.94789-14.09068-7.15022-16.68858-15.8761-3.59947-12.09005-8.14776-23.90254-12.45536-35.7738C38.44569,65.58567,36.61242,62.27334,34.965,58.71753Z"/>
        <path d="M311.25917,58.982v9.7082c-1.74847-1.11455-3.06518-2.04608-4.465-2.82912-4.47965-2.50592-9.15873-3.01847-13.8816-.8449-5.13015,2.361-6.20629,8.02889-2.03707,11.82293,2.42092,2.20309,5.4681,3.7298,8.27639,5.49252,3.79483,2.382,7.93027,4.3274,11.38831,7.11833,7.67856,6.19723,8.02386,15.45142,1.26468,22.7067-7.06436,7.58287-22.85575,10.32093-32.08454,5.49339a3.95852,3.95852,0,0,1-1.94-2.04769c-.76507-2.84038-1.24716-5.757-1.80194-8.47448,4.41162,1.7256,8.41483,3.9302,12.68433,4.75287a19.64241,19.64241,0,0,0,10.1593-1.02286c5.898-2.23,6.895-8.5624,2.26492-12.85518-2.03683-1.88848-4.6217-3.205-7.0199-4.68021-3.81894-2.34917-7.88269-4.34891-11.493-6.97719a15.682,15.682,0,0,1-6.61145-15.70594c.88968-6.46813,5.37085-9.72712,10.95307-11.72483C294.86083,56.07117,302.87337,56.40761,311.25917,58.982Z"/>
        <path d="M176.62509,118.34215c.64624-3.8434,1.63861-7.16246,1.68782-10.49546q.2838-19.22326-.005-38.4525c-.056-3.49979-1.09848-6.98381-1.72372-10.68508h33.34239V68.0894c-6.018-3.84473-12.50021-2.87045-19.2843-2.30736V82.2721h14.24881v7.83957l-14.1837-1.10413v21.23718c8.95346,1.53772,17.93233,3.38039,26.72795-2.94914a86.34446,86.34446,0,0,1-3.05972,9.0682,4.4418,4.4418,0,0,1-3.40534,1.89418C199.32248,118.39727,187.67238,118.34215,176.62509,118.34215Z"/>
        <path d="M370.79561,37.34138c-1.07959,3.15216-1.75256,5.117-2.50272,7.30734-9.01138,0-17.8168.24021-26.59127-.17483-2.10117-.09939-4.49283-2.01811-6.06543-3.72985-3.65885-3.98263-6.90018-8.3489-10.31067-12.55972l-1.07044.30337c.24265,5.30365.48529,10.60729.73578,16.08247H316.9066a294.377,294.377,0,0,0-.0484-36.251c4.64884,0,9.926-.27,15.16236.07669,5.13543.34,8.42926,3.09733,9.33721,6.91656,1.05961,4.45733-.83743,8.20858-5.61746,11.11243-.52429.3185-1.04339.64552-1.90475,1.17912,3.22467,3.96173,6.2167,7.70079,9.2901,11.37172a50.19549,50.19549,0,0,0,3.91626,3.60191c-.265-12.06738,1.01977-22.99933-.98749-34.25147h19.48071v4.61949L354.49922,12.32V22.58474h8.18058c.10281,1.77574.191,3.29861.28082,4.85l-8.45825-.6671V39.494C359.71138,41.13283,364.88381,41.276,370.79561,37.34138ZM324.569,25.52806c4.374-1.10117,8.29065-2.08876,9.37967-6.33539a7.33079,7.33079,0,0,0-1.70447-5.758c-2.03641-2.22666-4.92865-2.47962-7.6752-.645Z"/>
        <path d="M278.56087,27.62135c4.21561,5.05416,8.01721,9.61192,12.01556,14.40559,2.0242-4.76108,1.80707-28.06847-.17212-33.67936h19.86313v4.65151l-10.898-.71461V22.56892h7.862c.1806,1.67887.33,3.06755.51492,4.78651l-8.29882-.58311v12.592c6.28921,1.95958,8.9794,1.739,15.69833-1.4624-.36136,1.38013-.59741,2.44292-.92294,3.47756-.29764.94609-.692,1.86175-1.19248,3.18365-9.0267,0-18.12558.21731-27.19806-.17554-1.9122-.0828-4.05368-2.111-5.52243-3.75078-3.52441-3.93483-6.71194-8.17141-10.44107-12.78848v16.68h-8.0986a322.98505,322.98505,0,0,0-.05792-36.18026c4.64059,0,10.06149-.29172,15.43567.08455,5.06314.35451,8.31869,3.27494,9.11145,7.16936.86132,4.23135-1.06079,7.96847-5.52106,10.7253C280.20317,26.65811,279.65688,26.97091,278.56087,27.62135Zm-9.0867-2.38726c4.18963-.5006,7.882-1.78167,9.2326-5.79529.55033-1.63525-.27252-4.37158-1.44854-5.80423-1.93482-2.3571-4.82752-2.55906-7.78406-.99747Z"/>
        <path d="M111.3328,118.14107H95.81042c.56226-3.63,1.51984-7.114,1.56918-10.61091q.27792-19.69974.00031-39.40528c-.0393-3.00441-1.00831-5.99664-1.59373-9.23985h15.428c-.48877,3.95136-1.36353,8.06529-1.43887,12.19381q-.323,17.70075-.04757,35.40975C109.79006,110.31506,110.75337,114.12686,111.3328,118.14107Z"/>
        <path d="M174.49207,8.20225h8.98619c-2.00807,8.65031-1.2787,17.43837-.713,26.15013.318,4.89634,3.33325,6.70622,8.39527,6.34048,4.43572-.32048,6.75232-2.78407,6.81415-7.52767.08034-6.16386.11051-12.33167-.03172-18.49331a44.964,44.964,0,0,0-1.09564-6.46552h8.942c-1.28,12.01079-.81538,23.98018-.31036,36.25668-2.1865-.01274-5.43351,1.83743-7.45949-.98072-4.11569.71565-7.95206,2.04274-11.732,1.89771-7.09036-.272-10.80817-4.58454-10.94782-11.70172-.10783-5.49634.06559-10.99845-.059-16.49408C175.21459,14.26193,174.78084,11.348,174.49207,8.20225Z"/>
        <path d="M229.88417,7.92142v5.18276a69.88641,69.88641,0,0,0-7.57171-1.40435c-2.4511-.1974-4.64647.66551-5.483,3.33724-.81978,2.61817.9062,4.09843,2.75609,5.2636,2.94635,1.85582,6.13368,3.3385,9.02736,5.26674,7.954,5.30022,7.2713,14.20439-1.36931,18.40836-5.07762,2.47046-10.35692,2.02071-15.56955.55631-3.50887-.98575-2.16626-4.22666-3.012-6.21954,3.91135.83327,7.53721,1.78576,11.22333,2.3311a4.96663,4.96663,0,0,0,5.89247-3.48794c.90075-2.7216-.8185-4.41985-2.75493-5.82536-1.33431-.96846-2.86446-1.66377-4.28652-2.51551a67.10338,67.10338,0,0,1-5.91877-3.65915A9.6517,9.6517,0,0,1,208.868,15.06546a8.52006,8.52006,0,0,1,7.56319-6.996C220.74339,7.43624,225.21987,7.92142,229.88417,7.92142Z"/>
        <path d="M385.672,44.56011h-8.76089V12.21533l-9.25162,1.10773c.3981-1.62019.81195-3.3045,1.26471-5.14709h25.69849c-.40283,1.86982-.788,3.65761-1.08246,5.02435L384.428,12.17367C384.99178,23.38639,383.3611,33.95344,385.672,44.56011Z"/>
        <path d="M241.45082,12.09883l-9.27035,1.216,1.34288-5.26253h24.94334c-.40579,1.9452-.75854,3.63612-1.09311,5.23987l-8.79832-1.18626c.74716,11.24034-1.34265,21.83129,1.47493,32.41246h-9.61276a23.57833,23.57833,0,0,0,.97064-4.51492C241.49245,31.03261,241.45082,22.06061,241.45082,12.09883Z"/>
        <path d="M126.66463,44.7737A199.17953,199.17953,0,0,0,126.74912,8.149h8.71757c-2.03612,10.39209-.32393,20.82686-1.084,31.20986,5.31348,2.21041,9.95626,1.33918,14.53842-1.48506-1.36747,6.89021-1.36747,6.89333-7.31816,6.89893Q134.12788,44.77978,126.66463,44.7737Z"/>
        <path d="M150.49455,44.77379c1.76786-6.00379,1.72622-31.09729.00054-36.45868h9.04024V39.73457a14.78573,14.78573,0,0,0,13.80629-1.92527c-1.47384,6.9572-1.47384,6.95953-7.45757,6.96377C160.90556,44.77659,155.92709,44.77379,150.49455,44.77379Z"/>
        <path d="M120.48834,44.59493h-8.31845a210.60032,210.60032,0,0,0,.09122-36.41428h8.34357A269.85147,269.85147,0,0,0,120.48834,44.59493Z"/>
      </g>
    </g>
  </g>
</svg>
