<svg xmlns="http://www.w3.org/2000/svg" viewBox="0 0 485.47038 467.78767">
  <defs>
    <style>
      .cls-1 {
        fill: #fff;
      }
    </style>
  </defs>
  <title>Asset 5</title>
  <g id="Layer_2" data-name="Layer 2">
    <g id="Layer_2-2" data-name="Layer 2">
      <path d="M485.47038,222.08964c-.76373,51.30213-8.77,96.88916-26.1055,140.82511-9.52548,24.14175-24.71042,43.334-45.43143,58.83065-29.77859,22.27042-62.692,36.882-99.31576,43.106-22.08862,3.75391-44.30191,3.60535-66.50214,1.259-13.57171-1.43445-27.13153-3.1037-40.62132-5.1615a173.9889,173.9889,0,0,1-52.87141-17.41269c-8.81559-4.48645-18.12145-8.02927-26.83922-12.68482C89.968,410.65672,57.72593,383.87922,32.76973,348.793,15.49327,324.50392,5.40075,297.37962,1.669,267.83561c-4.9274-39.00988,1.29664-76.51091,15.48673-112.85539C31.895,117.22924,53.2488,83.77849,82.97487,55.97913,114.4012,26.5897,151.67055,9.31584,194.09781,2.89962,228.5269-2.307,262.67906-.17115,296.67329,6.66818A404.4501,404.4501,0,0,1,376.69893,31.99c45.21582,19.42849,75.57153,52.82951,92.88559,98.51791a234.08072,234.08072,0,0,1,14.12585,63.64674C484.61125,204.85365,485.07066,215.58983,485.47038,222.08964Z"/>
      <path class="cls-1" d="M350.529,365.972q-2.19945-17.59782-4.431-35.19184a15.96743,15.96743,0,0,0-3.0871-8.44391q-32.30165-41.20715-64.33393-82.62536c-.38873-.50025-.72167-1.04376-1.15692-1.67816.88782-.62195,1.62146-1.151,2.36988-1.658q29.27041-19.82748,58.56463-39.61939a3.2324,3.2324,0,0,0,1.71289-3.67126c-1.32043-7.54273-2.46344-15.11756-3.8833-22.64063a5.91845,5.91845,0,0,0-2.35974-3.45355q-72.94207-47.76406-145.95679-95.41723a3.97077,3.97077,0,0,0-4.35656-.34559c-7.39563,3.4328-14.81378,6.82312-22.30469,10.04047a4.07965,4.07965,0,0,0-2.87933,4.25684q-1.54,59.601-3.23053,119.19806-1.15338,41.85625-2.31324,83.71234c-.74176,27.15478-1.441,54.31079-2.24493,81.46374-.06372,2.15125.70471,3.0733,2.62421,3.79767,7.47107,2.8194,14.85858,5.861,22.33966,8.65247a5.813,5.813,0,0,0,3.95916-.10236q12.02317-5.2088,23.88807-10.77771a3.47561,3.47561,0,0,0,1.66839-2.50885c.91889-25.89795,1.94763-51.79559,2.41455-77.70312.1073-5.95234,1.56519-9.71961,6.97791-12.66413,7.133-3.88025,13.73736-8.7323,20.68072-13.23907.68445.81884,1.27509,1.49737,1.83551,2.2Q271.54906,310.83165,306.105,354.083a8.557,8.557,0,0,0,3.5102,2.53143c11.99121,4.50769,24.02795,8.89417,36.04693,13.32831C350.49351,371.72517,351.18107,371.18892,350.529,365.972ZM275.44169,235.25892c-3.936-5.05255-7.80395-10.01764-11.78924-15.13336.8352-.57043,1.56909-1.09631,2.32672-1.58539q15.52972-10.02639,31.064-20.04577c3.06934-1.98224,3.06147-2.63758-.04357-4.66419q-44.24424-28.877-88.51575-57.712a4.26213,4.26213,0,0,1-2.26727-4.196c.14965-5.906.0534-11.81829.0534-17.72808l.82892-.33082Q271.361,154.377,335.88524,195.056C315.59251,208.5533,295.64342,221.82209,275.44169,235.25892Zm-2.51446-52.8504c-22.79657,14.75226-45.31049,29.32159-68.34125,44.22546.57068-29.604,1.12933-58.58648,1.69806-88.08721C228.63328,153.25612,250.613,167.72224,272.92723,182.40852ZM187.15733,75.7967c.86743.47345,1.50092.765,2.07849,1.14209q71.10059,46.4296,142.16089,92.92109a4.86281,4.86281,0,0,1,1.87421,2.88317c1.06048,5.64148,1.9256,11.31983,2.83526,16.98908a14.17321,14.17321,0,0,1,.01142,1.9422c-1.00415-.58978-1.78516-1.02136-2.53937-1.49548Q270.57073,150.5745,207.5673,110.9637c-.56372-.35437-1.10907-.7453-1.69915-1.04889-1.721-.88526-2.72986-.37342-2.92359,1.50781-.085.82483-.01873,1.66473-.03094,2.49762q-.83525,56.8504-1.71076,113.70007a3.15845,3.15845,0,0,1-.94983,2.29749c-5.52136,3.6911-11.12628,7.25726-17.29974,11.24188C184.36058,185.80372,185.75383,131.00172,187.15733,75.7967ZM154.11271,366.33992q1.95365-70.70546,3.91114-141.41083,1.36065-49.46914,2.68835-98.93921c.35053-12.90875.72626-25.817,1.02143-38.72693a2.8176,2.8176,0,0,1,1.9826-2.966c6.70831-2.8692,13.35675-5.8783,20.31274-8.96411,0,1.48278.02625,2.61047-.00378,3.73663q-1.417,53.09309-2.843,106.18591-.76464,28.60785-1.47308,57.217a11.3951,11.3951,0,0,0,.85632,3.1344,12.71476,12.71476,0,0,0,3.10327-1.02655q45.18476-29.47467,90.29029-59.07043c1.72375-1.13208,2.88983-1.18628,4.59881.00641,5.17414,3.611,10.4903,7.01861,15.96619,10.64813-2.00043,1.324-3.72351,2.47736-5.45941,3.61114q-13.69776,8.94654-27.39844,17.8888c-2.50775,1.6405-2.57153,2.07233-.70557,4.48559q38.9,50.30823,77.80622,100.61164c.53833.69616,1.05139,1.41186,1.81555,2.44073-6.58728,1.30841-12.74475,2.591-18.93707,3.67426-.66.11542-1.72211-.77875-2.26386-1.46729q-14.83428-18.85172-29.56994-37.78094-22.45634-28.90476-44.80921-57.88971c-1.26953-1.64679-2.39148-1.69061-3.98852-.65q-30.34434,19.77227-60.67536,39.56481a4.23648,4.23648,0,0,0-1.57171,2.98444q-1.42648,41.2141-2.62977,82.43567c-.06634,2.2876-.73761,3.52832-2.92462,4.4408-6.28131,2.6206-12.452,5.50628-19.10217,8.48291C154.11009,367.88026,154.09147,367.10951,154.11271,366.33992Zm24.76813,12.9339a3.14473,3.14473,0,0,1-2.13531-.00342c-6.44123-2.44055-12.85517-4.95294-19.49512-7.53a6.127,6.127,0,0,1,1.02582-.80109c5.9845-2.68756,11.97076-5.37152,17.97851-8.00647a3.2295,3.2295,0,0,1,2.11347-.32269c6.75061,2.47278,13.46667,5.03986,20.88788,7.84485C191.98057,373.61866,185.44707,376.48463,178.88084,379.27382Zm23.517-22.15052c-.10284,3.46778-.01428,6.94129-.01428,10.71-1.17017-.348-1.80554-.49121-2.40674-.7229-6.14081-2.36676-12.25671-4.80017-18.4267-7.08783a2.51577,2.51577,0,0,1-1.92974-2.90277q.96249-29.9793,1.80871-59.9624.29479-9.86874.63178-19.73639c.02685-.82068.09314-1.64.15954-2.77435,4.47284,1.72534,8.72962,3.36584,12.98517,5.00958,2.48663.96051,4.94482,2.0044,7.46692,2.86005a2.49918,2.49918,0,0,1,1.95489,2.90429Q203.44512,321.26967,202.39787,357.1233Zm105.66358-5.83166c-.74787-.90021-1.31263-1.55493-1.85053-2.231q-34.07583-42.82956-68.11084-85.69147c-1.60834-2.02954-2.86389-2.14721-4.95618-.74377-8.22863,5.51947-16.57745,10.8595-24.83386,16.33807a3.94863,3.94863,0,0,1-4.12421.521c-6.3977-2.58063-12.85766-5.007-19.83154-7.69769,19.6026-12.69,38.805-25.121,58.15711-37.64881.64129.811,1.20532,1.51367,1.75811,2.225q35.6522,45.87789,71.3639,91.70929c1.81121,2.31634,2.03491,3.97272.63873,6.5448C313.38212,339.94111,310.8911,345.48176,308.06145,351.29164ZM339.501,364.05031c-9.44678-3.39673-18.86707-6.867-28.663-10.45423,3.24719-6.58734,6.32324-12.82757,9.48272-19.23694a16.33554,16.33554,0,0,1,1.124,1.1883q9.8748,13.0263,19.704,26.08685a7.5783,7.5783,0,0,1,.7392,2.357A6.81845,6.81845,0,0,1,339.501,364.05031Zm5.81122-2.695c-7.42615-9.53693-14.71887-19.17969-22.37976-29.11932,6.55682-1.33954,12.75561-2.606,19.39575-3.96253,1.32892,10.98981,2.634,21.782,3.939,32.57416Q345.7897,361.10155,345.31218,361.35536Z"/>
    </g>
  </g>
</svg>
